<svg width="40" height="40" viewBox="0 0 40 40" fill="none" xmlns="http://www.w3.org/2000/svg">
<path fill-rule="evenodd" clip-rule="evenodd" d="M26.0616 25.8879C28.9403 23.0092 28.9403 18.3419 26.0616 15.4632C26.0326 15.4342 26.0034 15.4055 25.974 15.3771L30.3183 11.0328C32.8758 13.5902 34.3125 17.0588 34.3125 20.6756C34.3125 24.2923 32.8758 27.7609 30.3183 30.3184C27.7609 32.8758 24.2923 34.3125 20.6755 34.3125C17.0588 34.3125 13.5902 32.8758 11.0327 30.3184L15.5508 25.8003C15.5792 25.8297 15.6079 25.8589 15.637 25.8879C18.5156 28.7666 23.1829 28.7666 26.0616 25.8879Z" fill="#3182CE"/>
<path fill-rule="evenodd" clip-rule="evenodd" d="M5.64862 19.2856C5.64862 22.9024 7.08536 26.371 9.64279 28.9284L14.1608 24.4104C11.3686 21.5254 11.3973 16.923 14.247 14.0733C17.0967 11.2237 21.6991 11.1949 24.5841 13.9872L28.9284 9.64285C26.3709 7.08542 22.9023 5.64868 19.2856 5.64868C15.6688 5.64868 12.2002 7.08543 9.64279 9.64285C7.08536 12.2003 5.64862 15.6689 5.64862 19.2856Z" fill="#38B2AC"/>
</svg>
